# xmcd CD database file
#
# Track frame offsets:
#	150
#	2767
#	24542
#	50757
#	79635
#	103747
#	137247
#	158760
#	188100
#	212987
#	239085
#	266762
#	293425
#
# Disc length: 4282 seconds
#
# Revision: 0
# Processed by: cddbd v1.5PL3 Copyright (c) Steve Scherf et al.
# Submitted via: CDex 1.51
#
DISCID=b910b80d
DTITLE=misia - LOVE IS THE MESSAGE
DYEAR=2000
DGENRE=R&B
TTITLE0=OPENING
TTITLE1=BELIEVE
TTITLE2=sweetness
TTITLE3=It’s just love
TTITLE4=Sweet pain
TTITLE5=アツイナミダ
TTITLE6=雨の日曜日
TTITLE7=愛しい人
TTITLE8=あの日のように
TTITLE9=花／鳥／風／月
TTITLE10=One！
TTITLE11=忘れない日々
TTITLE12=LOVIN’ YOU
EXTD=YEAR: 2000
EXTT0=
EXTT1=
EXTT2=
EXTT3=
EXTT4=
EXTT5=
EXTT6=
EXTT7=
EXTT8=
EXTT9=
EXTT10=
EXTT11=
EXTT12=
PLAYORDER=
